<svg width="14" height="14" viewBox="0 0 14 14" fill="none" xmlns="http://www.w3.org/2000/svg">
<path d="M6.89302 4.5132L7.21702 5.27102C7.23898 5.33692 7.29939 5.37536 7.35979 5.38085L8.18351 5.45773C8.35924 5.47421 8.42514 5.68837 8.29883 5.80369L7.6783 6.34735C7.62888 6.39128 7.60691 6.45718 7.62338 6.51758L7.8046 7.32483C7.84304 7.49506 7.66182 7.62686 7.50806 7.53899L6.79966 7.11615C6.74475 7.0832 6.67336 7.0832 6.61845 7.11615L5.91005 7.53899C5.76178 7.62686 5.57507 7.49506 5.61351 7.32483L5.79473 6.51758C5.8112 6.45718 5.78924 6.39128 5.73981 6.34735L5.11928 5.80369C4.98748 5.68837 5.05887 5.47421 5.2346 5.45773L6.05832 5.38085C6.12421 5.37536 6.17913 5.33692 6.20659 5.27651L6.53058 4.51869C6.59648 4.35395 6.82163 4.35395 6.89302 4.5132Z" stroke="#F0C932" stroke-width="0.549146" stroke-miterlimit="10" stroke-linecap="round" stroke-linejoin="round"/>
<path d="M10.4445 6.11927C10.4587 4.05693 8.79836 2.37357 6.73602 2.35937C4.67368 2.34518 2.99032 4.00553 2.97613 6.06787C2.96193 8.13021 4.62228 9.81357 6.68462 9.82777C8.74696 9.84196 10.4303 8.18161 10.4445 6.11927Z" stroke="#F0C932" stroke-width="0.549146" stroke-miterlimit="10" stroke-linecap="round" stroke-linejoin="round"/>
<path d="M6.20107 9.7905L5.27301 12.1244L4.09784 10.779L2.32409 10.9437L3.49927 8.00028" stroke="#F0C932" stroke-width="0.549146" stroke-miterlimit="10" stroke-linecap="round" stroke-linejoin="round"/>
<path d="M7.21153 9.79051L8.14508 12.1244L9.31476 10.779L11.094 10.9437L9.91333 8.00029" stroke="#F0C932" stroke-width="0.549146" stroke-miterlimit="10" stroke-linecap="round" stroke-linejoin="round"/>
</svg>
