<svg width="6" height="6" viewBox="0 0 6 6" fill="none" xmlns="http://www.w3.org/2000/svg">
<path d="M3.13851 1.31427C2.42643 1.31427 1.85207 1.88568 1.85207 2.59409C1.85207 3.3025 2.42643 3.8739 3.13851 3.8739C3.85059 3.8739 4.42496 3.3025 4.42496 2.59409C4.42496 1.88568 3.85059 1.31427 3.13851 1.31427ZM3.13851 3.42613C2.67835 3.42613 2.30215 3.05299 2.30215 2.59409C2.30215 2.13518 2.67723 1.76204 3.13851 1.76204C3.5998 1.76204 3.97487 2.13518 3.97487 2.59409C3.97487 3.05299 3.59868 3.42613 3.13851 3.42613ZM4.77764 1.26192C4.77764 1.42788 4.64328 1.56043 4.47758 1.56043C4.31076 1.56043 4.17752 1.42677 4.17752 1.26192C4.17752 1.09707 4.31187 0.963406 4.47758 0.963406C4.64328 0.963406 4.77764 1.09707 4.77764 1.26192ZM5.62967 1.56489C5.61064 1.16501 5.51883 0.810808 5.22437 0.518978C4.93102 0.227149 4.57499 0.135813 4.17304 0.115764C3.75878 0.0923731 2.51712 0.0923731 2.10286 0.115764C1.70204 0.134699 1.346 0.226035 1.05154 0.517865C0.757078 0.809694 0.666388 1.1639 0.646235 1.56377C0.622723 1.9759 0.622723 3.21116 0.646235 3.62328C0.665269 4.02316 0.757078 4.37736 1.05154 4.66919C1.346 4.96102 1.70092 5.05236 2.10286 5.07241C2.51712 5.0958 3.75878 5.0958 4.17304 5.07241C4.57499 5.05347 4.93102 4.96214 5.22437 4.66919C5.51771 4.37736 5.60952 4.02316 5.62967 3.62328C5.65318 3.21116 5.65318 1.97701 5.62967 1.56489ZM5.09449 4.06548C5.00716 4.2838 4.8381 4.45199 4.61753 4.53999C4.28724 4.67031 3.50351 4.64023 3.13851 4.64023C2.77352 4.64023 1.98866 4.66919 1.65949 4.53999C1.44005 4.4531 1.27098 4.28491 1.18253 4.06548C1.05154 3.7369 1.08177 2.9572 1.08177 2.59409C1.08177 2.23097 1.05266 1.45016 1.18253 1.12269C1.26986 0.904371 1.43893 0.73618 1.65949 0.648185C1.98978 0.517865 2.77352 0.547939 3.13851 0.547939C3.50351 0.547939 4.28836 0.518978 4.61753 0.648185C4.83698 0.735066 5.00604 0.903257 5.09449 1.12269C5.22549 1.45127 5.19526 2.23097 5.19526 2.59409C5.19526 2.9572 5.22549 3.73801 5.09449 4.06548Z" fill="white"/>
</svg>
