<svg width="6" height="5" viewBox="0 0 6 5" fill="none" xmlns="http://www.w3.org/2000/svg">
<g clip-path="url(#clip0_32_434)">
<path d="M1.56063 4.81288V1.60642H0.485246V4.81288H1.56063ZM1.02307 1.16837C1.39808 1.16837 1.6315 0.922147 1.6315 0.614455C1.62451 0.299825 1.39809 0.0604401 1.03019 0.0604401C0.662346 0.0604401 0.421799 0.29983 0.421799 0.614455C0.421799 0.922161 0.655163 1.16837 1.01605 1.16837H1.02304H1.02307ZM2.15584 4.81288H3.23122V3.02223C3.23122 2.9264 3.23821 2.83067 3.26661 2.76216C3.34435 2.57069 3.52129 2.37238 3.81836 2.37238C4.20749 2.37238 4.36317 2.66642 4.36317 3.09747V4.81286H5.43848V2.9743C5.43848 1.9894 4.90795 1.53114 4.20041 1.53114C3.62029 1.53114 3.36557 1.85251 3.22407 2.07139H3.23125V1.60635H2.15587C2.16998 1.90723 2.15587 4.81282 2.15587 4.81282L2.15584 4.81288Z" fill="white"/>
</g>
<defs>
<clipPath id="clip0_32_434">
<rect width="5.06927" height="4.75244" fill="white" transform="translate(0.435196 0.0604858)"/>
</clipPath>
</defs>
</svg>
