<svg width="25" height="25" viewBox="0 0 8 8" fill="none" xmlns="http://www.w3.org/2000/svg">
<path d="M3.62111 1.06005C3.66853 0.914106 3.87501 0.914106 3.92243 1.06005L4.58979 3.11399C4.611 3.17926 4.67182 3.22345 4.74045 3.22345L6.90009 3.22345C7.05355 3.22345 7.11735 3.41982 6.9932 3.51002L5.24602 4.77942C5.1905 4.81976 5.16727 4.89127 5.18847 4.95654L5.85584 7.01047C5.90326 7.15642 5.73621 7.27779 5.61206 7.18758L3.86488 5.91818C3.80936 5.87784 3.73418 5.87784 3.67865 5.91818L1.93147 7.18758C1.80732 7.27778 1.64028 7.15642 1.6877 7.01047L2.35506 4.95654C2.37627 4.89127 2.35304 4.81976 2.29752 4.77942L0.550335 3.51002C0.426184 3.41982 0.489989 3.22345 0.643449 3.22345L2.80308 3.22345C2.87171 3.22345 2.93254 3.17926 2.95374 3.11399L3.62111 1.06005Z" fill="#F1CC4A"/>
</svg>
