<svg width="7" height="5" viewBox="0 0 7 5" fill="none" xmlns="http://www.w3.org/2000/svg">
<path d="M6.54347 0.917532C6.33216 1.00766 6.10803 1.06682 5.87853 1.09305C6.11758 0.955096 6.30113 0.736648 6.38756 0.476369C6.16031 0.606208 5.91169 0.697688 5.65242 0.746856C5.44123 0.530233 5.14037 0.394852 4.80737 0.394852C4.16801 0.394852 3.64963 0.893932 3.64963 1.50948C3.64963 1.59686 3.65988 1.68192 3.67961 1.76352C2.71745 1.71702 1.86441 1.27327 1.29339 0.59889C1.19376 0.763516 1.13667 0.955012 1.13667 1.15926C1.13667 1.54599 1.34107 1.88715 1.6517 2.08705C1.46785 2.0815 1.28805 2.03369 1.1273 1.94761C1.12724 1.95228 1.12724 1.95695 1.12724 1.96164C1.12724 2.5017 1.5263 2.95222 2.05589 3.05462C1.88541 3.09926 1.70659 3.1058 1.53308 3.07372C1.6804 3.51656 2.10795 3.83881 2.61454 3.84783C2.21832 4.14678 1.71912 4.32499 1.17674 4.32499C1.08328 4.32499 0.991147 4.31971 0.900574 4.30941C1.41291 4.62568 2.02144 4.81021 2.67522 4.81021C4.80469 4.81021 5.96913 3.11171 5.96913 1.63875C5.96913 1.59041 5.96803 1.54234 5.96578 1.49454C6.19243 1.33679 6.38805 1.14139 6.54347 0.917532" fill="white"/>
</svg>
