<svg width="23" height="7" viewBox="0 0 15 7" fill="none" xmlns="http://www.w3.org/2000/svg">
<path d="M3.23713 0.944591V6.4747H2.06792V2.05439H2.03552L0.769101 2.84827V1.81137L2.13813 0.944591H3.23713ZM6.71977 6.59621C6.25533 6.59441 5.85569 6.4801 5.52086 6.25328C5.18783 6.02646 4.93131 5.69793 4.75129 5.26769C4.57308 4.83745 4.48487 4.3199 4.48667 3.71505C4.48667 3.11199 4.57578 2.59804 4.75399 2.1732C4.93401 1.74837 5.19053 1.42524 5.52356 1.20382C5.85839 0.980594 6.25713 0.868984 6.71977 0.868984C7.18242 0.868984 7.58025 0.980594 7.91328 1.20382C8.24812 1.42704 8.50554 1.75107 8.68556 2.1759C8.86557 2.59894 8.95468 3.11199 8.95288 3.71505C8.95288 4.3217 8.86287 4.84015 8.68286 5.27039C8.50464 5.70063 8.24902 6.02916 7.91598 6.25598C7.58295 6.4828 7.18422 6.59621 6.71977 6.59621ZM6.71977 5.62682C7.0366 5.62682 7.28953 5.46751 7.47854 5.14888C7.66756 4.83025 7.76117 4.35231 7.75937 3.71505C7.75937 3.29561 7.71617 2.94638 7.62976 2.66735C7.54515 2.38832 7.42454 2.1786 7.26792 2.03819C7.11311 1.89778 6.93039 1.82757 6.71977 1.82757C6.40475 1.82757 6.15272 1.98509 5.9637 2.30012C5.77469 2.61515 5.67928 3.08679 5.67748 3.71505C5.67748 4.13989 5.71978 4.49452 5.80439 4.77894C5.8908 5.06157 6.01231 5.27399 6.16892 5.4162C6.32554 5.55662 6.50915 5.62682 6.71977 5.62682ZM11.9549 6.59621C11.4904 6.59441 11.0908 6.4801 10.756 6.25328C10.4229 6.02646 10.1664 5.69793 9.9864 5.26769C9.80818 4.83745 9.71998 4.3199 9.72178 3.71505C9.72178 3.11199 9.81088 2.59804 9.9891 2.1732C10.1691 1.74837 10.4256 1.42524 10.7587 1.20382C11.0935 0.980594 11.4922 0.868984 11.9549 0.868984C12.4175 0.868984 12.8154 0.980594 13.1484 1.20382C13.4832 1.42704 13.7406 1.75107 13.9207 2.1759C14.1007 2.59894 14.1898 3.11199 14.188 3.71505C14.188 4.3217 14.098 4.84015 13.918 5.27039C13.7397 5.70063 13.4841 6.02916 13.1511 6.25598C12.8181 6.4828 12.4193 6.59621 11.9549 6.59621ZM11.9549 5.62682C12.2717 5.62682 12.5246 5.46751 12.7137 5.14888C12.9027 4.83025 12.9963 4.35231 12.9945 3.71505C12.9945 3.29561 12.9513 2.94638 12.8649 2.66735C12.7803 2.38832 12.6596 2.1786 12.503 2.03819C12.3482 1.89778 12.1655 1.82757 11.9549 1.82757C11.6399 1.82757 11.3878 1.98509 11.1988 2.30012C11.0098 2.61515 10.9144 3.08679 10.9126 3.71505C10.9126 4.13989 10.9549 4.49452 11.0395 4.77894C11.1259 5.06157 11.2474 5.27399 11.404 5.4162C11.5606 5.55662 11.7443 5.62682 11.9549 5.62682Z" fill="#F0C932"/>
</svg>
