<svg width="23" height="8" viewBox="0 0 23 8" fill="none" xmlns="http://www.w3.org/2000/svg">
<path d="M0.2529 5.50261V4.58183L2.56161 0.944591H3.35549V2.21911H2.88564L1.43021 4.52242V4.56562H4.71101V5.50261H0.2529ZM2.90725 6.4747V5.22179L2.92885 4.81405V0.944591H4.02515V6.4747H2.90725ZM6.64709 5.71863L6.61739 6.01566C6.59399 6.25328 6.54898 6.49 6.48237 6.72582C6.41757 6.96345 6.34916 7.17857 6.27716 7.37118C6.20695 7.5638 6.15024 7.71502 6.10704 7.82483H5.36177C5.38877 7.71862 5.42568 7.5701 5.47248 7.37928C5.51929 7.19027 5.56339 6.97785 5.60479 6.74203C5.6462 6.5062 5.6723 6.26588 5.6831 6.02106L5.6966 5.71863H6.64709ZM9.63357 6.59621C9.16912 6.59441 8.76949 6.4801 8.43465 6.25328C8.10162 6.02646 7.8451 5.69793 7.66508 5.26769C7.48687 4.83745 7.39866 4.3199 7.40046 3.71505C7.40046 3.11199 7.48957 2.59804 7.66778 2.1732C7.8478 1.74837 8.10432 1.42524 8.43736 1.20382C8.77219 0.980594 9.17092 0.868984 9.63357 0.868984C10.0962 0.868984 10.494 0.980594 10.8271 1.20382C11.1619 1.42704 11.4193 1.75107 11.5993 2.1759C11.7794 2.59894 11.8685 3.11199 11.8667 3.71505C11.8667 4.3217 11.7767 4.84015 11.5966 5.27039C11.4184 5.70063 11.1628 6.02916 10.8298 6.25598C10.4967 6.4828 10.098 6.59621 9.63357 6.59621ZM9.63357 5.62682C9.95039 5.62682 10.2033 5.46751 10.3923 5.14888C10.5814 4.83025 10.675 4.35231 10.6732 3.71505C10.6732 3.29561 10.63 2.94638 10.5435 2.66735C10.4589 2.38832 10.3383 2.1786 10.1817 2.03819C10.0269 1.89778 9.84418 1.82757 9.63357 1.82757C9.31854 1.82757 9.06651 1.98509 8.8775 2.30012C8.68848 2.61515 8.59307 3.08679 8.59127 3.71505C8.59127 4.13989 8.63357 4.49452 8.71818 4.77894C8.80459 5.06157 8.9261 5.27399 9.08271 5.4162C9.23933 5.55662 9.42295 5.62682 9.63357 5.62682ZM14.8687 6.59621C14.4042 6.59441 14.0046 6.4801 13.6698 6.25328C13.3367 6.02646 13.0802 5.69793 12.9002 5.26769C12.722 4.83745 12.6338 4.3199 12.6356 3.71505C12.6356 3.11199 12.7247 2.59804 12.9029 2.1732C13.0829 1.74837 13.3394 1.42524 13.6725 1.20382C14.0073 0.980594 14.406 0.868984 14.8687 0.868984C15.3313 0.868984 15.7292 0.980594 16.0622 1.20382C16.397 1.42704 16.6544 1.75107 16.8345 2.1759C17.0145 2.59894 17.1036 3.11199 17.1018 3.71505C17.1018 4.3217 17.0118 4.84015 16.8318 5.27039C16.6535 5.70063 16.3979 6.02916 16.0649 6.25598C15.7319 6.4828 15.3331 6.59621 14.8687 6.59621ZM14.8687 5.62682C15.1855 5.62682 15.4384 5.46751 15.6274 5.14888C15.8165 4.83025 15.9101 4.35231 15.9083 3.71505C15.9083 3.29561 15.8651 2.94638 15.7787 2.66735C15.694 2.38832 15.5734 2.1786 15.4168 2.03819C15.262 1.89778 15.0793 1.82757 14.8687 1.82757C14.5536 1.82757 14.3016 1.98509 14.1126 2.30012C13.9236 2.61515 13.8282 3.08679 13.8264 3.71505C13.8264 4.13989 13.8687 4.49452 13.9533 4.77894C14.0397 5.06157 14.1612 5.27399 14.3178 5.4162C14.4744 5.55662 14.6581 5.62682 14.8687 5.62682ZM20.1038 6.59621C19.6393 6.59441 19.2397 6.4801 18.9049 6.25328C18.5718 6.02646 18.3153 5.69793 18.1353 5.26769C17.9571 4.83745 17.8689 4.3199 17.8707 3.71505C17.8707 3.11199 17.9598 2.59804 18.138 2.1732C18.318 1.74837 18.5745 1.42524 18.9076 1.20382C19.2424 0.980594 19.6411 0.868984 20.1038 0.868984C20.5664 0.868984 20.9643 0.980594 21.2973 1.20382C21.6321 1.42704 21.8895 1.75107 22.0696 2.1759C22.2496 2.59894 22.3387 3.11199 22.3369 3.71505C22.3369 4.3217 22.2469 4.84015 22.0669 5.27039C21.8886 5.70063 21.633 6.02916 21.3 6.25598C20.967 6.4828 20.5682 6.59621 20.1038 6.59621ZM20.1038 5.62682C20.4206 5.62682 20.6735 5.46751 20.8626 5.14888C21.0516 4.83025 21.1452 4.35231 21.1434 3.71505C21.1434 3.29561 21.1002 2.94638 21.0138 2.66735C20.9292 2.38832 20.8085 2.1786 20.6519 2.03819C20.4971 1.89778 20.3144 1.82757 20.1038 1.82757C19.7888 1.82757 19.5367 1.98509 19.3477 2.30012C19.1587 2.61515 19.0633 3.08679 19.0615 3.71505C19.0615 4.13989 19.1038 4.49452 19.1884 4.77894C19.2748 5.06157 19.3963 5.27399 19.5529 5.4162C19.7095 5.55662 19.8932 5.62682 20.1038 5.62682Z" fill="#F0C932"/>
</svg>
