<svg width="23" height="8" viewBox="0 0 23 8" fill="none" xmlns="http://www.w3.org/2000/svg">
<path d="M2.45952 6.55031C2.1751 6.54851 1.90057 6.5008 1.63595 6.40719C1.37312 6.31359 1.1373 6.16147 0.928481 5.95085C0.719662 5.74023 0.554047 5.46121 0.431636 5.11378C0.311024 4.76634 0.250719 4.3397 0.250719 3.83386C0.252519 3.36941 0.305624 2.95448 0.410034 2.58904C0.516243 2.22181 0.667457 1.91038 0.863675 1.65476C1.06169 1.39913 1.29842 1.20471 1.57384 1.0715C1.84927 0.93649 2.15799 0.868984 2.50003 0.868984C2.86906 0.868984 3.19489 0.940991 3.47752 1.085C3.76014 1.22722 3.98696 1.42073 4.15798 1.66556C4.33079 1.91038 4.4352 2.18491 4.47121 2.48913H3.3182C3.2732 2.29652 3.17869 2.1453 3.03468 2.03549C2.89066 1.92568 2.71245 1.87078 2.50003 1.87078C2.13999 1.87078 1.86637 2.02739 1.67915 2.34062C1.49373 2.65385 1.39922 3.07959 1.39562 3.61784H1.43343C1.51624 3.45402 1.62785 3.31451 1.76826 3.1993C1.91047 3.08229 2.07159 2.99318 2.2516 2.93197C2.43342 2.86897 2.62514 2.83747 2.82676 2.83747C3.15439 2.83747 3.44601 2.91487 3.70164 3.06969C3.95726 3.2227 4.15888 3.43332 4.30649 3.70155C4.45411 3.96977 4.52791 4.2767 4.52791 4.62233C4.52791 4.99676 4.44061 5.3298 4.26599 5.62142C4.09317 5.91305 3.85105 6.14167 3.53962 6.30729C3.22999 6.4711 2.86996 6.55211 2.45952 6.55031ZM2.45412 5.63222C2.63414 5.63222 2.79525 5.58902 2.93747 5.50261C3.07968 5.4162 3.19129 5.29919 3.2723 5.15158C3.3533 5.00397 3.39381 4.83835 3.39381 4.65473C3.39381 4.47112 3.3533 4.3064 3.2723 4.16059C3.19309 4.01477 3.08328 3.89866 2.94287 3.81226C2.80245 3.72585 2.64224 3.68264 2.46222 3.68264C2.32721 3.68264 2.2021 3.70785 2.08689 3.75825C1.97348 3.80866 1.87357 3.87886 1.78716 3.96887C1.70255 4.05888 1.63595 4.16329 1.58734 4.2821C1.53874 4.39911 1.51444 4.52422 1.51444 4.65743C1.51444 4.83565 1.55494 4.99856 1.63595 5.14618C1.71875 5.29379 1.83036 5.4117 1.97078 5.49991C2.11299 5.58812 2.27411 5.63222 2.45412 5.63222ZM6.38771 5.71863L6.35801 6.01566C6.3346 6.25328 6.2896 6.49 6.22299 6.72582C6.15819 6.96345 6.08978 7.17857 6.01778 7.37118C5.94757 7.5638 5.89086 7.71502 5.84766 7.82483H5.10239C5.12939 7.71862 5.1663 7.5701 5.2131 7.37928C5.25991 7.19027 5.30401 6.97785 5.34541 6.74203C5.38682 6.5062 5.41292 6.26588 5.42372 6.02106L5.43722 5.71863H6.38771ZM9.37418 6.59621C8.90974 6.59441 8.51011 6.4801 8.17527 6.25328C7.84224 6.02646 7.58572 5.69793 7.4057 5.26769C7.22749 4.83745 7.13928 4.3199 7.14108 3.71505C7.14108 3.11199 7.23019 2.59804 7.4084 2.1732C7.58842 1.74837 7.84494 1.42524 8.17797 1.20382C8.51281 0.980594 8.91154 0.868984 9.37418 0.868984C9.83683 0.868984 10.2347 0.980594 10.5677 1.20382C10.9025 1.42704 11.1599 1.75107 11.34 2.1759C11.52 2.59894 11.6091 3.11199 11.6073 3.71505C11.6073 4.3217 11.5173 4.84015 11.3373 5.27039C11.159 5.70063 10.9034 6.02916 10.5704 6.25598C10.2374 6.4828 9.83863 6.59621 9.37418 6.59621ZM9.37418 5.62682C9.69101 5.62682 9.94394 5.46751 10.133 5.14888C10.322 4.83025 10.4156 4.35231 10.4138 3.71505C10.4138 3.29561 10.3706 2.94638 10.2842 2.66735C10.1996 2.38832 10.0789 2.1786 9.92234 2.03819C9.76752 1.89778 9.5848 1.82757 9.37418 1.82757C9.05916 1.82757 8.80713 1.98509 8.61812 2.30012C8.4291 2.61515 8.33369 3.08679 8.33189 3.71505C8.33189 4.13989 8.37419 4.49452 8.4588 4.77894C8.54521 5.06157 8.66672 5.27399 8.82333 5.4162C8.97995 5.55662 9.16357 5.62682 9.37418 5.62682ZM14.6093 6.59621C14.1448 6.59441 13.7452 6.4801 13.4104 6.25328C13.0774 6.02646 12.8208 5.69793 12.6408 5.26769C12.4626 4.83745 12.3744 4.3199 12.3762 3.71505C12.3762 3.11199 12.4653 2.59804 12.6435 2.1732C12.8235 1.74837 13.0801 1.42524 13.4131 1.20382C13.7479 0.980594 14.1466 0.868984 14.6093 0.868984C15.0719 0.868984 15.4698 0.980594 15.8028 1.20382C16.1376 1.42704 16.3951 1.75107 16.5751 2.1759C16.7551 2.59894 16.8442 3.11199 16.8424 3.71505C16.8424 4.3217 16.7524 4.84015 16.5724 5.27039C16.3942 5.70063 16.1385 6.02916 15.8055 6.25598C15.4725 6.4828 15.0737 6.59621 14.6093 6.59621ZM14.6093 5.62682C14.9261 5.62682 15.179 5.46751 15.3681 5.14888C15.5571 4.83025 15.6507 4.35231 15.6489 3.71505C15.6489 3.29561 15.6057 2.94638 15.5193 2.66735C15.4347 2.38832 15.3141 2.1786 15.1574 2.03819C15.0026 1.89778 14.8199 1.82757 14.6093 1.82757C14.2943 1.82757 14.0422 1.98509 13.8532 2.30012C13.6642 2.61515 13.5688 3.08679 13.567 3.71505C13.567 4.13989 13.6093 4.49452 13.6939 4.77894C13.7803 5.06157 13.9018 5.27399 14.0584 5.4162C14.2151 5.55662 14.3987 5.62682 14.6093 5.62682ZM19.8444 6.59621C19.38 6.59441 18.9803 6.4801 18.6455 6.25328C18.3125 6.02646 18.0559 5.69793 17.8759 5.26769C17.6977 4.83745 17.6095 4.3199 17.6113 3.71505C17.6113 3.11199 17.7004 2.59804 17.8786 2.1732C18.0586 1.74837 18.3152 1.42524 18.6482 1.20382C18.983 0.980594 19.3818 0.868984 19.8444 0.868984C20.307 0.868984 20.7049 0.980594 21.0379 1.20382C21.3727 1.42704 21.6302 1.75107 21.8102 2.1759C21.9902 2.59894 22.0793 3.11199 22.0775 3.71505C22.0775 4.3217 21.9875 4.84015 21.8075 5.27039C21.6293 5.70063 21.3736 6.02916 21.0406 6.25598C20.7076 6.4828 20.3088 6.59621 19.8444 6.59621ZM19.8444 5.62682C20.1612 5.62682 20.4142 5.46751 20.6032 5.14888C20.7922 4.83025 20.8858 4.35231 20.884 3.71505C20.884 3.29561 20.8408 2.94638 20.7544 2.66735C20.6698 2.38832 20.5492 2.1786 20.3926 2.03819C20.2377 1.89778 20.055 1.82757 19.8444 1.82757C19.5294 1.82757 19.2773 1.98509 19.0883 2.30012C18.8993 2.61515 18.8039 3.08679 18.8021 3.71505C18.8021 4.13989 18.8444 4.49452 18.929 4.77894C19.0154 5.06157 19.1369 5.27399 19.2935 5.4162C19.4502 5.55662 19.6338 5.62682 19.8444 5.62682Z" fill="#F0C932"/>
</svg>
